<svg xmlns="http://www.w3.org/2000/svg" width="800px" height="800px" viewBox="0 0 800 800">
    <g fill="rgb(200, 200, 200)">
      <circle cx="76.31357123" cy="76.31357123" r="76.31357123" /><circle cx="238.15678561" cy="76.31357123" r="76.31357123" /><circle cx="400" cy="76.31357123" r="76.31357123" /><circle cx="561.84321439" cy="76.31357123" r="76.31357123" /><circle cx="723.68642877" cy="76.31357123" r="76.31357123" /><circle cx="76.31357123" cy="238.15678561" r="76.31357123" /><circle cx="238.15678561" cy="238.15678561" r="76.31357123" /><circle cx="400" cy="238.15678561" r="76.31357123" /><circle cx="561.84321439" cy="238.15678561" r="76.31357123" /><circle cx="723.68642877" cy="238.15678561" r="76.31357123" /><circle cx="76.31357123" cy="400" r="76.31357123" /><circle cx="238.15678561" cy="400" r="76.31357123" /><circle cx="400" cy="400" r="76.31357123" /><circle cx="561.84321439" cy="400" r="76.31357123" /><circle cx="723.68642877" cy="400" r="76.31357123" /><circle cx="76.31357123" cy="561.84321439" r="76.31357123" /><circle cx="238.15678561" cy="561.84321439" r="76.31357123" /><circle cx="400" cy="561.84321439" r="76.31357123" /><circle cx="561.84321439" cy="561.84321439" r="76.31357123" /><circle cx="723.68642877" cy="561.84321439" r="76.31357123" /><circle cx="76.31357123" cy="723.68642877" r="76.31357123" /><circle cx="238.15678561" cy="723.68642877" r="76.31357123" /><circle cx="400" cy="723.68642877" r="76.31357123" /><circle cx="561.84321439" cy="723.68642877" r="76.31357123" /><circle cx="723.68642877" cy="723.68642877" r="76.31357123" />
    </g>
  </svg>

