<svg width="1018" height="356" viewBox="0 0 1018 356" fill="none" xmlns="http://www.w3.org/2000/svg">
<path d="M34.2325 153.412H0V1.69048H34.0212C64.6613 1.69048 79.0305 12.6787 79.0305 43.1076C79.0305 58.9559 72.6912 68.8876 62.1256 74.1703V74.593C75.4382 80.0871 80.721 91.4979 80.721 108.825C80.721 146.228 61.2803 153.412 34.2325 153.412ZM30.0062 62.7595H35.7117C44.798 62.7595 47.5451 57.0541 47.5451 45.432C47.5451 33.3872 43.1076 29.7949 36.5569 29.7949H30.0062V62.7595ZM30.0062 125.308H37.6135C45.2207 125.308 48.813 120.87 48.813 106.924C48.813 93.3997 45.432 88.1169 36.5569 88.1169H30.0062V125.308Z" fill="black"/>
<path d="M138.586 115.376V1.69048H168.803V113.052C168.803 141.579 156.125 154.257 129.711 154.257C103.508 154.257 90.8293 141.579 90.8293 113.052V1.69048H121.469V115.376C121.469 125.096 124.639 128.477 129.922 128.477C135.416 128.477 138.586 125.096 138.586 115.376Z" fill="black"/>
<path d="M215.147 153.412H184.295V1.69048H215.147V153.412Z" fill="black"/>
<path d="M300.429 153.412H231.964V1.69048H262.604V124.885H300.429V153.412Z" fill="black"/>
<path d="M344.426 153.412H309.349V1.69048H341.679C376.334 1.69048 392.817 18.1728 392.817 76.0722C392.817 123.406 385.632 153.412 344.426 153.412ZM341.257 124.251H346.328C357.528 124.251 360.697 110.093 360.697 76.0722C360.697 36.3456 353.935 30.8515 344.426 30.8515H341.257V124.251Z" fill="black"/>
<path d="M475.651 153.412H441.418V1.69048H475.439C506.08 1.69048 520.449 12.6787 520.449 43.1076C520.449 58.9559 514.109 68.8876 503.544 74.1703V74.593C516.856 80.0871 522.139 91.4979 522.139 108.825C522.139 146.228 502.699 153.412 475.651 153.412ZM471.424 62.7595H477.13C486.216 62.7595 488.963 57.0541 488.963 45.432C488.963 33.3872 484.526 29.7949 477.975 29.7949H471.424V62.7595ZM471.424 125.308H479.032C486.639 125.308 490.231 120.87 490.231 106.924C490.231 93.3997 486.85 88.1169 477.975 88.1169H471.424V125.308Z" fill="black"/>
<path d="M616.455 153.412H583.702L571.657 94.6676H564.684V153.412H534.255V1.69048H571.234C597.86 1.69048 612.44 11.6221 612.44 43.9528C612.44 62.1256 606.735 72.6912 598.071 78.6079L616.455 153.412ZM564.684 69.0989H567.431C577.151 69.0989 580.321 64.2387 580.321 47.9677C580.321 27.6818 572.08 27.6818 567.431 27.6818H564.684V69.0989Z" fill="black"/>
<path d="M656.523 153.412H625.672V1.69048H656.523V153.412Z" fill="black"/>
<path d="M708.419 153.412H673.341V1.69048H705.672C740.327 1.69048 756.809 18.1728 756.809 76.0722C756.809 123.406 749.624 153.412 708.419 153.412ZM705.249 124.251H710.32C721.52 124.251 724.69 110.093 724.69 76.0722C724.69 36.3456 717.928 30.8515 708.419 30.8515H705.249V124.251Z" fill="black"/>
<path d="M848.304 153.412H823.157V143.481H822.735C815.973 152.144 808.154 155.103 799.279 155.103C779.416 155.103 766.949 141.579 766.949 77.1287C766.949 39.5153 772.02 0 809.634 0C844.077 0 848.092 27.4705 848.726 53.2505H820.199C819.565 40.5718 817.663 28.3157 809.634 28.3157C802.026 28.3157 799.068 36.5569 799.068 77.1287C799.068 116.644 799.702 127.843 809.211 127.843C816.396 127.843 819.354 119.18 819.354 107.346C819.354 105.444 819.354 102.275 819.143 100.162H808.577V74.593H848.304V153.412Z" fill="black"/>
<path d="M933.115 153.412H862.96V1.69048H931.002V30.2176H893.6V61.4917H923.606V88.7508H893.6V124.885H933.115V153.412Z" fill="black"/>
<path d="M1015.64 40.3605L988.596 42.4736C987.962 34.6551 986.06 25.9913 978.242 25.9913C972.748 25.9913 970.635 29.7949 970.635 34.6551C970.635 62.9708 1017.55 71.212 1017.55 116.221C1017.55 140.311 1002.75 155.103 978.031 155.103C950.138 155.103 941.474 140.311 939.783 114.108L968.099 111.995C968.944 123.617 970.846 129.534 978.453 129.534C983.736 129.534 987.117 125.73 987.117 118.334C987.117 89.3848 941.474 80.9323 941.474 37.1908C941.474 15.0031 953.73 0 977.819 0C1006.56 0 1013.95 18.8067 1015.64 40.3605Z" fill="black"/>
<path d="M225.151 353.412H200.639L171.9 273.536H171.478V353.412H145.698V201.69H174.859L198.526 270.367H198.948V201.69H225.151V353.412Z" fill="black"/>
<path d="M278.413 355.103C245.237 355.103 236.573 328.266 236.573 277.763C236.573 220.709 246.927 200 278.413 200C309.898 200 320.253 220.709 320.253 277.763C320.253 328.266 311.589 355.103 278.413 355.103ZM278.413 328.477C284.752 328.477 288.133 322.349 288.133 277.763C288.133 237.191 286.02 227.682 278.413 227.682C270.806 227.682 268.693 237.191 268.693 277.763C268.693 322.349 272.073 328.477 278.413 328.477Z" fill="black"/>
<path d="M372.646 353.412H342.006V230.218H321.298V201.69H393.355V230.218H372.646V353.412Z" fill="black"/>
<path d="M533.149 353.412H502.086L492.788 263.816H492.366L484.97 353.412H454.118L430.452 201.69H459.824L468.91 289.807H469.333L478.631 201.69H507.58L517.935 289.807H518.357L526.387 201.69H555.548L533.149 353.412Z" fill="black"/>
<path d="M636.797 353.412H605.734L602.142 320.659H583.335L580.166 353.412H548.892L572.347 201.69H611.651L636.797 353.412ZM591.788 236.557L586.082 293.611H599.184L592.844 236.557H591.788Z" fill="black"/>
<path d="M714.121 353.412H645.656V201.69H676.296V324.885H714.121V353.412Z" fill="black"/>
<path d="M791.505 353.412H723.04V201.69H753.681V324.885H791.505V353.412Z" fill="black"/>
<path d="M869.946 240.361L842.899 242.474C842.265 234.655 840.363 225.991 832.544 225.991C827.05 225.991 824.937 229.795 824.937 234.655C824.937 262.971 871.848 271.212 871.848 316.221C871.848 340.311 857.056 355.103 832.333 355.103C804.44 355.103 795.776 340.311 794.086 314.108L822.401 311.995C823.247 323.617 825.148 329.534 832.756 329.534C838.038 329.534 841.419 325.73 841.419 318.334C841.419 289.385 795.776 280.932 795.776 237.191C795.776 215.003 808.032 200 832.122 200C860.86 200 868.256 218.807 869.946 240.361Z" fill="black"/>
</svg>
