<?xml version="1.0" encoding="UTF-8"?>
<svg id="Layer_1" data-name="Layer 1" xmlns="http://www.w3.org/2000/svg" viewBox="0 0 138.08 121.82">
  <defs>
    <style>
      .cls-1 {
        fill: #ff00e4;
      }

      .cls-2 {
        fill: #fff;
      }
    </style>
  </defs>
  <path class="cls-1" d="M.73,115.98c-1.49-3.19-.52-6.56,1.35-9.2l11.34-19.66,1.01-1.78,8.79-15.15.97-1.68,1.01-1.79,3.14-5.41.64-1.13,14.06-24.33,1.48-2.57,14.95-25.87c.8-1.38,1.41-2.72,2.36-3.92,2.67-3.37,7.07-4.39,11.04-2.67,2.15.93,3.64,2.89,4.76,4.92l1.19,2.16,36.83,63.74,3.63,6.27,3.75,6.49,14.1,24.49c1.89,3.28.76,7.11-1.42,9.83-1.04,1.29-2.33,1.89-3.81,2.47s-2.76.63-4.44.63l-118.87-.05c-2.92,0-5.85-1.96-7.02-4.18l-.85-1.61ZM123.58,109.75L69,15.24,14.4,109.78l109.19-.03Z"/>
  <path class="cls-2" d="M123.58,109.75l-109.19.03L69,15.24l54.59,94.51ZM78.82,94.19l.04,7.32h26.76s0-16.22,0-16.22l-7-.04c-5.66.13-10.17-2.55-13.88-6.44-8.63-9.01-23.09-9-31.69,0-3.67,3.84-8.13,6.47-13.67,6.44l-7.2.03v16.22s26.66,0,26.66,0c.02-2.64-.1-5.21.08-7.91.35-5.42,5.1-9.43,10.33-9.24s9.56,4.37,9.58,9.83Z"/>
  <path d="M78.82,94.19c-.03-5.47-4.44-9.65-9.58-9.83s-9.98,3.83-10.33,9.24c-.18,2.7-.05,5.27-.08,7.91h-26.66s0-16.22,0-16.22l7.2-.03c5.54.04,10-2.6,13.67-6.44,8.6-9.01,23.06-9.01,31.69,0,3.72,3.88,8.22,6.56,13.88,6.44l7,.04v16.22s-26.76,0-26.76,0l-.04-7.32Z"/>
</svg>
