<?xml version="1.0" encoding="UTF-8"?>
<svg id="images" xmlns="http://www.w3.org/2000/svg" viewBox="0 0 360.85 120.33">
  <defs>
    <style>
      .cls-1 {
        fill: none;
        stroke: #231f20;
        stroke-miterlimit: 10;
      }
    </style>
  </defs>
  <g>
    <path d="M68.92,38.87c-.78,1.73-1.71,3.23-2.82,4.51-1.1,1.28-2.33,2.33-3.68,3.16-1.35.83-2.82,1.44-4.39,1.84-1.58.4-3.22.6-4.92.6-.53,0-.96.02-1.31.06-.35.04-.64.08-.86.11-.23.04-.41.07-.56.09-.15.02-.3.04-.45.04-.22,0-.41-.03-.56-.09-.15-.06-.22-.17-.22-.32,0-.2.11-.32.32-.36.21-.04.38-.06.51-.06.35,0,.69.02,1.01.07.33.05.66.1,1.01.15,1.5-.73,2.78-1.77,3.83-3.14s1.99-2.89,2.82-4.58,1.6-3.46,2.31-5.31c.71-1.85,1.5-3.61,2.37-5.28.86-1.67,1.86-3.17,2.99-4.51,1.13-1.34,2.5-2.35,4.13-3.02l-.08-.08c-1.08.18-2.23.65-3.46,1.43s-2.46,1.75-3.7,2.91c-1.24,1.16-2.47,2.47-3.68,3.91-1.21,1.44-2.37,2.92-3.47,4.45-.85,1.2-1.72,2.43-2.61,3.68-.89,1.25-1.81,2.47-2.76,3.66-.95,1.19-1.97,2.33-3.04,3.44-1.08,1.1-2.25,2.12-3.53,3.04l-.26-.38c.88-1.38,1.58-2.85,2.12-4.43.54-1.58,1.04-3.18,1.5-4.81.46-1.63.93-3.24,1.41-4.84s1.08-3.13,1.82-4.58c.74-1.45,1.66-2.79,2.76-4.02,1.1-1.23,2.49-2.27,4.17-3.12l-.08-.08c-1.65.55-3.17,1.35-4.54,2.39s-2.65,2.22-3.83,3.53-2.27,2.73-3.27,4.25c-1,1.51-1.97,3.02-2.89,4.53-.93,1.5-1.82,2.96-2.67,4.36s-1.73,2.64-2.63,3.7c-.9,1.07-1.87,1.92-2.89,2.55-1.03.64-2.18.96-3.46.96-.33,0-.65-.03-.96-.08-.31-.05-.6-.15-.86-.3-.26-.15-.48-.35-.64-.6-.16-.25-.24-.58-.24-.98,0-.38.12-.69.38-.94.25-.25.56-.38.94-.38.33,0,.59.13.79.38.2.25.3.54.3.86,0,.2-.04.41-.13.64-.09.22-.23.36-.43.41.02.15.17.28.45.38.28.1.54.15.79.15,1.1,0,2.13-.34,3.08-1.03.95-.69,1.88-1.6,2.8-2.74s1.82-2.44,2.72-3.91c.9-1.46,1.84-2.99,2.82-4.56,1.15-1.83,2.3-3.54,3.46-5.15,1.15-1.6,2.39-3.04,3.72-4.3,1.33-1.26,2.79-2.33,4.38-3.21,1.59-.88,3.4-1.51,5.43-1.92l.04.34c-1.55.48-2.84,1.23-3.87,2.27-1.03,1.04-1.91,2.26-2.65,3.66s-1.38,2.93-1.92,4.58c-.54,1.65-1.09,3.32-1.65,5.01-.56,1.69-1.18,3.35-1.86,4.98-.68,1.63-1.53,3.13-2.55,4.51l.08.08c.93-.8,1.86-1.75,2.8-2.84.94-1.09,1.86-2.23,2.76-3.42.9-1.19,1.77-2.38,2.61-3.57.84-1.19,1.62-2.29,2.35-3.29,1.95-2.68,3.74-4.83,5.37-6.46s3.13-2.89,4.51-3.77,2.64-1.48,3.78-1.78c1.14-.3,2.2-.45,3.17-.45.38,0,.74.06,1.09.17.35.11.53.29.53.54,0,.2-.08.33-.23.38-.15.05-.33.08-.53.08-.35,0-.72-.04-1.11-.13-.39-.09-.77-.13-1.15-.13-.58,0-1.16.25-1.75.75-.59.5-1.18,1.15-1.77,1.95-.59.8-1.16,1.7-1.71,2.69s-1.06,1.97-1.52,2.93c-.46.96-.86,1.86-1.2,2.69-.34.83-.61,1.48-.81,1.95-.4,1.08-.86,2.22-1.39,3.44-.53,1.21-1.18,2.4-1.95,3.57-.78,1.16-1.72,2.26-2.84,3.29-1.11,1.03-2.47,1.89-4.08,2.59v.08c3.81,0,7.03-.83,9.67-2.48,2.64-1.65,4.73-4.12,6.25-7.4l.3.08Z"/>
    <path d="M81.66,39.24c-.38.63-.85,1.31-1.41,2.07-.56.75-1.2,1.5-1.92,2.23-.71.74-1.48,1.45-2.29,2.14-.81.69-1.66,1.3-2.54,1.84-.88.54-1.76.96-2.65,1.28-.89.31-1.76.47-2.61.47-1.05,0-1.87-.27-2.44-.81-.58-.54-.86-1.31-.86-2.31,0-1.1.33-2.26,1-3.47.66-1.21,1.51-2.33,2.54-3.36,1.03-1.03,2.15-1.88,3.38-2.55,1.23-.68,2.4-1.01,3.53-1.01.63,0,1.11.13,1.46.39s.53.65.53,1.15c0,.6-.33,1.18-.98,1.75-.65.56-1.45,1.08-2.38,1.54-.94.46-1.95.88-3.02,1.24-1.08.36-2.03.63-2.85.81-.28.5-.5,1.06-.68,1.69-.18.63-.26,1.25-.26,1.88,0,.3.03.59.09.88.06.29.16.55.3.79.14.24.33.43.56.58.24.15.53.22.88.22.83,0,1.8-.27,2.91-.81,1.11-.54,2.25-1.26,3.4-2.16,1.15-.9,2.25-1.93,3.31-3.08,1.05-1.15,1.95-2.34,2.7-3.57l.3.19ZM75.57,37.25c0-.35-.09-.61-.28-.79-.19-.17-.42-.26-.69-.26-.53,0-1.1.21-1.71.62-.61.41-1.22.93-1.82,1.54-.6.61-1.15,1.27-1.63,1.97s-.86,1.33-1.11,1.88c.55-.1,1.24-.29,2.07-.58s1.62-.64,2.38-1.07c.76-.42,1.42-.92,1.97-1.48.55-.56.83-1.17.83-1.82Z"/>
    <path d="M85.08,36.05l-4.96,6.87.08.07c.53-.62,1.14-1.36,1.84-2.2.7-.84,1.45-1.63,2.25-2.38.8-.75,1.63-1.38,2.5-1.9.86-.51,1.72-.77,2.57-.77.75,0,1.33.21,1.75.62s.62.95.62,1.6c0,.4-.14.88-.43,1.43s-.64,1.14-1.07,1.77-.89,1.26-1.39,1.92c-.5.65-.96,1.27-1.39,1.86-.43.59-.78,1.13-1.07,1.62-.29.49-.43.9-.43,1.22,0,.7.35,1.05,1.05,1.05.8,0,1.65-.27,2.55-.81.9-.54,1.98-1.45,3.23-2.72.5-.5,1.01-1.05,1.52-1.65.51-.6,1.01-1.2,1.48-1.78.47-.59.91-1.15,1.3-1.67.39-.53.69-.96.92-1.31l.26.15c-.5.75-1.15,1.65-1.93,2.69-.79,1.04-1.65,2.06-2.57,3.06-.55.6-1.12,1.18-1.69,1.73-.58.55-1.15,1.03-1.73,1.45-.58.41-1.15.74-1.71.98-.56.24-1.12.36-1.67.36-.73,0-1.33-.2-1.8-.6-.48-.4-.71-.95-.71-1.65,0-.75.3-1.57.9-2.46s1.26-1.78,1.99-2.69c.73-.9,1.39-1.77,1.99-2.59.6-.83.9-1.55.9-2.18,0-.3-.1-.53-.3-.68-.2-.15-.46-.23-.79-.23-.63,0-1.33.23-2.1.69-.78.46-1.57,1.08-2.39,1.84s-1.63,1.62-2.44,2.55c-.81.94-1.57,1.88-2.27,2.82-.7.94-1.33,1.84-1.88,2.7-.55.86-.96,1.58-1.24,2.16h-2.33c.65-1.1,1.35-2.22,2.08-3.36s1.47-2.27,2.2-3.38c.73-1.11,1.42-2.19,2.08-3.23.66-1.04,1.26-1.98,1.78-2.84l2.44-.11Z"/>
    <path d="M117.04,37.29c-1.23,1.55-2.49,3.05-3.79,4.49-1.3,1.44-2.61,2.72-3.92,3.83s-2.62,2-3.92,2.67c-1.3.66-2.55,1-3.76,1-.83,0-1.48-.09-1.97-.28-.49-.19-.86-.41-1.13-.68-.26-.26-.44-.54-.53-.83-.09-.29-.13-.54-.13-.77,0-.42.12-.79.38-1.09.25-.3.6-.45,1.05-.45.4,0,.71.14.94.41.23.28.34.6.34.98,0,.23-.06.45-.19.68-.12.22-.3.36-.53.41.23.35.54.58.94.69.4.11.81.17,1.24.17,1.08,0,2.21-.31,3.4-.94s2.39-1.45,3.61-2.46c1.21-1.01,2.42-2.17,3.62-3.46,1.2-1.29,2.35-2.61,3.46-3.96.48-.6,1.07-1.34,1.78-2.22.71-.88,1.52-1.83,2.42-2.85.9-1.03,1.88-2.07,2.95-3.14,1.06-1.06,2.2-2.07,3.4-3.02,1.2-.95,2.45-1.8,3.76-2.55,1.3-.75,2.63-1.31,3.98-1.69l.11.15c-.85.78-1.74,1.74-2.67,2.89-.93,1.15-1.83,2.4-2.72,3.74-.89,1.34-1.73,2.75-2.54,4.23-.8,1.48-1.51,2.95-2.12,4.41-.61,1.46-1.1,2.87-1.46,4.23-.36,1.35-.54,2.59-.54,3.72,0,.78.13,1.43.39,1.97s.79.81,1.6.81c.48,0,1.02-.17,1.63-.53.61-.35,1.26-.81,1.93-1.39.68-.58,1.35-1.21,2.01-1.92.66-.7,1.3-1.4,1.9-2.08.6-.69,1.14-1.34,1.62-1.95.47-.61.85-1.11,1.13-1.48l.26.11c-.85,1.08-1.75,2.22-2.71,3.42-.95,1.2-1.92,2.3-2.89,3.29-.98.99-1.96,1.81-2.95,2.46-.99.65-1.93.98-2.84.98-.6,0-1.11-.11-1.52-.32-.41-.21-.76-.51-1.03-.88s-.48-.8-.6-1.28c-.13-.48-.19-.98-.19-1.5,0-1.43.2-2.8.6-4.11.4-1.31.85-2.61,1.35-3.89h-5.15ZM122.37,36.84c1.13-2.33,2.46-4.61,4-6.84,1.54-2.23,3.36-4.34,5.46-6.35l-.08-.08c-1.33.65-2.62,1.45-3.89,2.4-1.27.95-2.5,2-3.7,3.16-1.2,1.15-2.37,2.38-3.51,3.68-1.14,1.3-2.25,2.64-3.32,4.02h5.03Z"/>
    <path d="M138.41,36.05l-4.77,6.95.08.08c.35-.42.79-.92,1.33-1.48s1.13-1.14,1.77-1.73c.64-.59,1.31-1.17,2.01-1.75.7-.58,1.39-1.09,2.07-1.54.12-.25.26-.45.41-.6s.45-.23.9-.23c.28,0,.52,0,.73.02.21.01.43.03.66.06-.43.43-.84.95-1.24,1.56-.4.61-.6,1.28-.6,2.01,0,.58.14,1.03.43,1.35s.64.49,1.07.49c.38,0,.75-.08,1.11-.23.36-.15.71-.34,1.03-.56.33-.23.64-.46.94-.71.3-.25.56-.48.79-.68l.23.15c-.25.25-.54.52-.86.81s-.68.56-1.05.81c-.38.25-.78.46-1.2.62-.43.16-.86.24-1.31.24-.8,0-1.45-.24-1.93-.73s-.73-1.17-.73-2.05c0-.6.14-1.14.41-1.62l-.07-.08c-1.03.7-2.15,1.62-3.38,2.76-1.23,1.14-2.53,2.49-3.91,4.04-.5.55-1.02,1.28-1.56,2.18-.54.9-1.01,1.83-1.41,2.78h-2.44c1.35-2.15,2.7-4.29,4.06-6.42,1.35-2.13,2.74-4.29,4.17-6.5h2.29Z"/>
    <path d="M159.93,39.24c-.38.63-.85,1.31-1.41,2.07-.56.75-1.2,1.5-1.92,2.23-.71.74-1.48,1.45-2.29,2.14-.81.69-1.66,1.3-2.54,1.84-.88.54-1.76.96-2.65,1.28-.89.31-1.76.47-2.61.47-1.05,0-1.87-.27-2.44-.81-.58-.54-.86-1.31-.86-2.31,0-1.1.33-2.26,1-3.47.66-1.21,1.51-2.33,2.54-3.36,1.03-1.03,2.15-1.88,3.38-2.55,1.23-.68,2.4-1.01,3.53-1.01.63,0,1.11.13,1.46.39s.53.65.53,1.15c0,.6-.33,1.18-.98,1.75-.65.56-1.45,1.08-2.38,1.54-.94.46-1.95.88-3.02,1.24-1.08.36-2.03.63-2.85.81-.28.5-.5,1.06-.68,1.69-.18.63-.26,1.25-.26,1.88,0,.3.03.59.09.88.06.29.16.55.3.79.14.24.33.43.56.58.24.15.53.22.88.22.83,0,1.8-.27,2.91-.81,1.11-.54,2.25-1.26,3.4-2.16,1.15-.9,2.25-1.93,3.31-3.08,1.05-1.15,1.95-2.34,2.7-3.57l.3.19ZM153.85,37.25c0-.35-.09-.61-.28-.79-.19-.17-.42-.26-.69-.26-.53,0-1.1.21-1.71.62-.61.41-1.22.93-1.82,1.54-.6.61-1.15,1.27-1.63,1.97s-.86,1.33-1.11,1.88c.55-.1,1.24-.29,2.07-.58s1.62-.64,2.38-1.07c.76-.42,1.42-.92,1.97-1.48.55-.56.83-1.17.83-1.82Z"/>
    <path d="M174.7,36.5v-.45h2.89c.98-1.55,1.98-3.12,3-4.7,1.03-1.58,2.1-3,3.23-4.26s2.3-2.29,3.53-3.08c1.23-.79,2.52-1.18,3.87-1.18.8,0,1.45.17,1.95.51s.75.86.75,1.56c0,.6-.19,1.1-.56,1.48-.38.39-.85.61-1.43.66.1-.35.18-.68.24-1,.06-.31.09-.68.09-1.11,0-.5-.12-.9-.36-1.2s-.64-.45-1.22-.45c-.93,0-1.87.42-2.84,1.26-.96.84-1.92,1.9-2.85,3.17-.94,1.28-1.85,2.66-2.74,4.15-.89,1.49-1.73,2.89-2.54,4.19h8.49v.45h-8.71c-2.4,4.11-4.56,7.62-6.46,10.55s-3.73,5.33-5.48,7.21c-1.75,1.88-3.5,3.25-5.26,4.13-1.75.88-3.69,1.31-5.82,1.31-.75,0-1.47-.09-2.16-.28-.69-.19-1.3-.47-1.82-.85-.53-.38-.95-.84-1.28-1.41-.33-.56-.49-1.22-.49-1.97,0-.98.31-1.81.92-2.5.61-.69,1.65-1.03,3.1-1.03h.34v.3c-.75.05-1.39.34-1.92.86s-.79,1.25-.79,2.18c0,1.3.36,2.33,1.09,3.1.73.76,1.79,1.15,3.19,1.15s2.64-.31,3.87-.92c1.23-.61,2.41-1.46,3.55-2.54,1.14-1.08,2.25-2.34,3.34-3.79,1.09-1.45,2.18-3.02,3.27-4.71,1.09-1.69,2.18-3.46,3.29-5.3,1.1-1.84,2.23-3.67,3.38-5.5h-2.67Z"/>
    <path d="M188.67,36.05l-4.77,6.95.08.08c.35-.42.79-.92,1.33-1.48s1.13-1.14,1.77-1.73c.64-.59,1.31-1.17,2.01-1.75.7-.58,1.39-1.09,2.07-1.54.12-.25.26-.45.41-.6s.45-.23.9-.23c.28,0,.52,0,.73.02.21.01.43.03.66.06-.43.43-.84.95-1.24,1.56-.4.61-.6,1.28-.6,2.01,0,.58.14,1.03.43,1.35s.64.49,1.07.49c.38,0,.75-.08,1.11-.23.36-.15.71-.34,1.03-.56.33-.23.64-.46.94-.71.3-.25.56-.48.79-.68l.23.15c-.25.25-.54.52-.86.81s-.68.56-1.05.81c-.38.25-.78.46-1.2.62-.43.16-.86.24-1.31.24-.8,0-1.45-.24-1.93-.73s-.73-1.17-.73-2.05c0-.6.14-1.14.41-1.62l-.07-.08c-1.03.7-2.15,1.62-3.38,2.76-1.23,1.14-2.53,2.49-3.91,4.04-.5.55-1.02,1.28-1.56,2.18-.54.9-1.01,1.83-1.41,2.78h-2.44c1.35-2.15,2.7-4.29,4.06-6.42,1.35-2.13,2.74-4.29,4.17-6.5h2.29Z"/>
    <path d="M214.21,39.47c-.6.68-1.28,1.21-2.03,1.62s-1.49.6-2.22.6-1.3-.16-1.8-.47c-.5-.31-.89-.68-1.17-1.11h-.08c-.25.95-.71,1.97-1.39,3.04-.68,1.08-1.48,2.07-2.42,2.97-.94.9-1.97,1.65-3.1,2.25-1.13.6-2.28.9-3.46.9-1.08,0-1.89-.31-2.44-.94-.55-.63-.83-1.46-.83-2.52,0-.55.14-1.19.41-1.92.27-.73.66-1.46,1.15-2.2.49-.74,1.06-1.46,1.73-2.18.66-.71,1.38-1.35,2.16-1.92.78-.56,1.6-1.01,2.46-1.35.86-.34,1.73-.51,2.61-.51,1.03,0,1.82.3,2.38.9.56.6.87,1.38.92,2.33.05.58.32,1.11.81,1.6s1.16.73,2.01.73c.75,0,1.46-.19,2.12-.56.66-.38,1.28-.86,1.86-1.46l.3.19ZM195.32,46.72c0,.65.12,1.17.38,1.54.25.38.63.56,1.13.56.68,0,1.35-.18,2.01-.54.66-.36,1.3-.84,1.92-1.43.61-.59,1.18-1.26,1.71-2.01.53-.75.98-1.53,1.37-2.33.39-.8.7-1.58.92-2.35.22-.76.34-1.46.34-2.08,0-.53-.13-.97-.39-1.33-.26-.36-.67-.54-1.22-.54s-1.09.17-1.69.51-1.21.78-1.82,1.33c-.61.55-1.2,1.19-1.75,1.92-.55.73-1.05,1.48-1.48,2.25-.44.78-.78,1.55-1.03,2.33-.25.78-.38,1.5-.38,2.18Z"/>
    <path d="M207.34,48.97c.55-.93,1.18-1.94,1.9-3.04.71-1.1,1.44-2.22,2.18-3.36.74-1.14,1.46-2.27,2.18-3.38s1.36-2.16,1.93-3.14h2.29l-4.96,6.99.08.08c.48-.58,1.05-1.28,1.73-2.12.68-.84,1.42-1.65,2.24-2.42.81-.78,1.68-1.44,2.61-1.99.93-.55,1.88-.83,2.85-.83.6,0,1.1.16,1.48.47.39.31.58.77.58,1.37,0,.35-.13.78-.38,1.28-.25.5-.54,1.01-.88,1.52-.34.51-.68,1.01-1.03,1.48s-.63.86-.83,1.16l.08.08c.53-.75,1.16-1.55,1.9-2.4.74-.85,1.53-1.65,2.37-2.38.84-.74,1.7-1.35,2.59-1.84.89-.49,1.75-.73,2.57-.73.73,0,1.27.18,1.63.53s.54.84.54,1.46c0,.43-.14.93-.43,1.5-.29.58-.65,1.18-1.09,1.82-.44.64-.91,1.28-1.41,1.93-.5.65-.97,1.28-1.41,1.88-.44.6-.8,1.16-1.09,1.67-.29.51-.43.95-.43,1.3,0,.3.09.54.28.71.19.18.42.26.7.26.6,0,1.31-.24,2.12-.71.81-.47,1.69-1.14,2.63-1.99.94-.85,1.92-1.87,2.95-3.06,1.03-1.19,2.07-2.5,3.12-3.92l.3.15c-1.03,1.4-2.05,2.71-3.08,3.92-1.03,1.21-2.02,2.27-2.99,3.17s-1.89,1.61-2.78,2.12c-.89.51-1.71.77-2.46.77s-1.35-.22-1.73-.66c-.38-.44-.56-.98-.56-1.63,0-.47.14-1.01.43-1.6.29-.59.65-1.2,1.09-1.82.44-.62.91-1.25,1.41-1.88.5-.62.97-1.23,1.41-1.8.44-.58.8-1.1,1.09-1.58s.43-.86.43-1.17c0-.35-.09-.59-.28-.73-.19-.14-.42-.21-.69-.21-.5,0-1.09.17-1.77.51-.68.34-1.38.81-2.12,1.43-.74.61-1.5,1.33-2.27,2.14-.78.81-1.53,1.69-2.27,2.63-.74.94-1.43,1.93-2.08,2.97s-1.21,2.07-1.69,3.1h-2.4c.7-1.25,1.46-2.5,2.27-3.76.81-1.25,1.57-2.41,2.27-3.47.7-1.06,1.29-1.99,1.76-2.78.48-.79.71-1.37.71-1.75,0-.68-.35-1.01-1.05-1.01-.63,0-1.33.23-2.1.69-.78.46-1.57,1.06-2.37,1.8-.8.74-1.59,1.58-2.37,2.52-.78.94-1.51,1.88-2.2,2.84-.69.95-1.3,1.86-1.82,2.72-.53.86-.94,1.6-1.24,2.2h-2.44Z"/>
    <path d="M279.38,38.87c-.78,1.73-1.71,3.23-2.82,4.51-1.1,1.28-2.33,2.33-3.68,3.16-1.35.83-2.82,1.44-4.39,1.84-1.58.4-3.22.6-4.92.6-.53,0-.96.02-1.31.06-.35.04-.64.08-.86.11-.23.04-.41.07-.56.09-.15.02-.3.04-.45.04-.22,0-.41-.03-.56-.09-.15-.06-.22-.17-.22-.32,0-.2.11-.32.32-.36.21-.04.38-.06.51-.06.35,0,.69.02,1.01.07.33.05.66.1,1.01.15,1.5-.73,2.78-1.77,3.83-3.14s1.99-2.89,2.82-4.58,1.6-3.46,2.31-5.31c.71-1.85,1.5-3.61,2.37-5.28.86-1.67,1.86-3.17,2.99-4.51,1.13-1.34,2.5-2.35,4.13-3.02l-.08-.08c-1.08.18-2.23.65-3.46,1.43s-2.46,1.75-3.7,2.91c-1.24,1.16-2.47,2.47-3.68,3.91-1.21,1.44-2.37,2.92-3.47,4.45-.85,1.2-1.72,2.43-2.61,3.68-.89,1.25-1.81,2.47-2.76,3.66-.95,1.19-1.97,2.33-3.04,3.44-1.08,1.1-2.25,2.12-3.53,3.04l-.26-.38c.88-1.38,1.58-2.85,2.12-4.43.54-1.58,1.04-3.18,1.5-4.81.46-1.63.93-3.24,1.41-4.84s1.08-3.13,1.82-4.58c.74-1.45,1.66-2.79,2.76-4.02,1.1-1.23,2.49-2.27,4.17-3.12l-.08-.08c-1.65.55-3.17,1.35-4.54,2.39s-2.65,2.22-3.83,3.53-2.27,2.73-3.27,4.25c-1,1.51-1.97,3.02-2.89,4.53-.93,1.5-1.82,2.96-2.67,4.36s-1.73,2.64-2.63,3.7c-.9,1.07-1.87,1.92-2.89,2.55-1.03.64-2.18.96-3.46.96-.33,0-.65-.03-.96-.08-.31-.05-.6-.15-.86-.3-.26-.15-.48-.35-.64-.6-.16-.25-.24-.58-.24-.98,0-.38.12-.69.38-.94.25-.25.56-.38.94-.38.33,0,.59.13.79.38.2.25.3.54.3.86,0,.2-.04.41-.13.64-.09.22-.23.36-.43.41.02.15.17.28.45.38.28.1.54.15.79.15,1.1,0,2.13-.34,3.08-1.03.95-.69,1.88-1.6,2.8-2.74s1.82-2.44,2.72-3.91c.9-1.46,1.84-2.99,2.82-4.56,1.15-1.83,2.3-3.54,3.46-5.15,1.15-1.6,2.39-3.04,3.72-4.3,1.33-1.26,2.79-2.33,4.38-3.21,1.59-.88,3.4-1.51,5.43-1.92l.04.34c-1.55.48-2.84,1.23-3.87,2.27-1.03,1.04-1.91,2.26-2.65,3.66s-1.38,2.93-1.92,4.58c-.54,1.65-1.09,3.32-1.65,5.01-.56,1.69-1.18,3.35-1.86,4.98-.68,1.63-1.53,3.13-2.55,4.51l.08.08c.93-.8,1.86-1.75,2.8-2.84.94-1.09,1.86-2.23,2.76-3.42.9-1.19,1.77-2.38,2.61-3.57.84-1.19,1.62-2.29,2.35-3.29,1.95-2.68,3.74-4.83,5.37-6.46s3.13-2.89,4.51-3.77,2.64-1.48,3.78-1.78c1.14-.3,2.2-.45,3.17-.45.38,0,.74.06,1.09.17.35.11.53.29.53.54,0,.2-.08.33-.23.38-.15.05-.33.08-.53.08-.35,0-.72-.04-1.11-.13-.39-.09-.77-.13-1.15-.13-.58,0-1.16.25-1.75.75-.59.5-1.18,1.15-1.77,1.95-.59.8-1.16,1.7-1.71,2.69s-1.06,1.97-1.52,2.93c-.46.96-.86,1.86-1.2,2.69-.34.83-.61,1.48-.81,1.95-.4,1.08-.86,2.22-1.39,3.44-.53,1.21-1.18,2.4-1.95,3.57-.78,1.16-1.72,2.26-2.84,3.29-1.11,1.03-2.47,1.89-4.08,2.59v.08c3.81,0,7.03-.83,9.67-2.48,2.64-1.65,4.73-4.12,6.25-7.4l.3.08Z"/>
    <path d="M289.29,36.05h2.44c-.93,1.3-1.82,2.57-2.67,3.79s-1.61,2.36-2.27,3.4c-.66,1.04-1.2,1.95-1.6,2.74-.4.79-.6,1.41-.6,1.86,0,.65.34.98,1.01.98.53,0,1.2-.26,2.01-.77s1.7-1.22,2.65-2.12c.95-.9,1.93-1.95,2.93-3.16,1-1.2,1.95-2.48,2.85-3.83l.23.07c-.68,1.03-1.47,2.14-2.38,3.32-.92,1.19-1.87,2.3-2.87,3.32-1,1.03-2,1.88-3,2.57-1,.69-1.94,1.03-2.82,1.03-.73,0-1.26-.18-1.6-.54s-.51-.79-.51-1.3c0-.35.06-.7.17-1.03.11-.34.23-.68.36-1.03l-.08-.04c-.33.35-.73.76-1.22,1.22-.49.46-1.01.9-1.58,1.3-.56.4-1.15.74-1.75,1.01-.6.27-1.18.41-1.73.41-.93,0-1.58-.29-1.95-.86-.38-.58-.56-1.23-.56-1.95,0-1.03.33-2.16.98-3.4s1.48-2.4,2.48-3.49c1-1.09,2.09-2,3.27-2.72,1.18-.73,2.29-1.09,3.34-1.09.5,0,.94.07,1.31.21.38.14.69.33.94.56.25.24.44.51.58.81.14.3.24.61.32.94h.08l1.24-2.22ZM277.01,46.57c0,.58.12,1.02.36,1.33s.57.47,1,.47.93-.16,1.5-.47c.58-.31,1.18-.73,1.8-1.26.63-.53,1.25-1.13,1.86-1.82.61-.69,1.16-1.42,1.63-2.2s.86-1.56,1.16-2.37c.3-.8.45-1.57.45-2.29,0-.58-.16-1.01-.49-1.31-.33-.3-.73-.45-1.2-.45-.75,0-1.59.33-2.52.98s-1.8,1.48-2.63,2.5c-.83,1.01-1.52,2.13-2.08,3.36-.56,1.23-.84,2.4-.84,3.53Z"/>
    <path d="M299.77,36.05l-4.77,6.95.08.08c.35-.42.79-.92,1.33-1.48s1.13-1.14,1.77-1.73c.64-.59,1.31-1.17,2.01-1.75.7-.58,1.39-1.09,2.07-1.54.12-.25.26-.45.41-.6s.45-.23.9-.23c.28,0,.52,0,.73.02.21.01.43.03.66.06-.43.43-.84.95-1.24,1.56-.4.61-.6,1.28-.6,2.01,0,.58.14,1.03.43,1.35s.64.49,1.07.49c.38,0,.75-.08,1.11-.23.36-.15.71-.34,1.03-.56.33-.23.64-.46.94-.71.3-.25.56-.48.79-.68l.23.15c-.25.25-.54.52-.86.81s-.68.56-1.05.81c-.38.25-.78.46-1.2.62-.43.16-.86.24-1.31.24-.8,0-1.45-.24-1.93-.73s-.73-1.17-.73-2.05c0-.6.14-1.14.41-1.62l-.07-.08c-1.03.7-2.15,1.62-3.38,2.76-1.23,1.14-2.53,2.49-3.91,4.04-.5.55-1.02,1.28-1.56,2.18-.54.9-1.01,1.83-1.41,2.78h-2.44c1.35-2.15,2.7-4.29,4.06-6.42,1.35-2.13,2.74-4.29,4.17-6.5h2.29Z"/>
    <path d="M321.18,39.28c-.75,1.2-1.62,2.4-2.61,3.59s-2.07,2.26-3.25,3.21c-1.18.95-2.46,1.72-3.85,2.31s-2.87.88-4.45.88c-.6,0-1.16-.08-1.69-.23-.53-.15-.98-.38-1.37-.68-.39-.3-.7-.68-.94-1.15-.24-.46-.36-1.01-.36-1.63s.21-1.24.64-1.76c.43-.53,1-.79,1.73-.79.38,0,.68.09.92.28.24.19.36.47.36.85,0,.35-.09.65-.26.9-.18.25-.44.38-.79.38-.28,0-.49-.08-.66-.23s-.27-.34-.32-.56c-.28.15-.46.37-.56.66-.1.29-.15.58-.15.88,0,.88.33,1.53,1,1.97.66.44,1.41.66,2.23.66.53,0,.98-.11,1.37-.32.39-.21.71-.49.98-.83s.46-.73.58-1.18c.12-.45.19-.9.19-1.35,0-.48-.08-.97-.24-1.48-.16-.51-.34-1.02-.54-1.52-.2-.5-.39-1-.56-1.48-.18-.49-.26-.95-.26-1.37,0-.55.11-1.05.34-1.48.23-.44.53-.81.92-1.11.39-.3.83-.53,1.33-.7.5-.16,1.03-.24,1.58-.24,1,0,1.82.22,2.44.66.63.44.94,1.02.94,1.75,0,.65-.24,1.13-.73,1.43-.49.3-1.03.45-1.63.45.15-.28.28-.61.39-1,.11-.39.17-.75.17-1.07,0-.5-.16-.92-.47-1.26-.31-.34-.76-.51-1.33-.51-.73,0-1.26.22-1.62.66-.35.44-.53.97-.53,1.6,0,.55.09,1.08.28,1.58.19.5.41,1,.66,1.5.23.5.43,1.01.62,1.54.19.53.28,1.12.28,1.77,0,.48-.11.93-.32,1.37-.21.44-.5.84-.85,1.2s-.75.67-1.18.92c-.44.25-.88.41-1.33.49l.08.08c1.35-.15,2.64-.54,3.87-1.18,1.23-.64,2.37-1.42,3.44-2.33s2.05-1.92,2.95-3c.9-1.09,1.69-2.16,2.37-3.21l.22.11Z"/>
    <path d="M315.25,53.41c.58-.1,1.17-.27,1.78-.51s1.18-.54,1.71-.92c.53-.38.96-.82,1.31-1.33.35-.51.55-1.1.6-1.75-.08.05-.23.08-.45.08-.28,0-.56-.1-.84-.3-.29-.2-.43-.51-.43-.94,0-.45.13-.82.39-1.11.26-.29.62-.43,1.07-.43.47,0,.84.18,1.09.54.25.36.38.76.38,1.18,0,.75-.19,1.45-.58,2.1-.39.65-.9,1.23-1.54,1.73-.64.5-1.35.91-2.14,1.24s-1.57.54-2.35.64v-.22Z"/>
    <path d="M34.99,66.65c-1.13.85-2.1,1.85-2.93,2.99s-1.57,2.36-2.23,3.66c-.66,1.3-1.26,2.65-1.8,4.06-.54,1.4-1.07,2.81-1.6,4.23-.53,1.42-1.08,2.79-1.67,4.13-.59,1.34-1.27,2.6-2.05,3.77l.08.08c.78-.73,1.62-1.54,2.54-2.44s1.85-1.84,2.82-2.82c.96-.98,1.92-1.96,2.87-2.97.95-1,1.86-1.98,2.72-2.93.86-.95,1.66-1.86,2.38-2.72.73-.86,1.33-1.63,1.8-2.31.15-.23.38-.56.7-1.01.31-.45.66-.94,1.03-1.48.38-.54.79-1.09,1.24-1.67.45-.58.9-1.1,1.35-1.56.45-.46.89-.84,1.32-1.15.42-.3.81-.45,1.16-.45.12,0,.24.04.34.13.1.09.15.22.15.39,0,.15-.06.32-.19.51-.13.19-.27.38-.43.56-.16.19-.34.37-.54.54-.2.18-.38.33-.53.45-1.05.93-1.93,1.95-2.63,3.06-.7,1.12-1.32,2.3-1.86,3.55-.54,1.25-1.02,2.54-1.45,3.85-.43,1.32-.88,2.63-1.37,3.94s-1.04,2.6-1.65,3.87c-.61,1.26-1.38,2.46-2.31,3.59l.08.08c1.15-.78,2.42-1.63,3.79-2.55,1.38-.93,2.76-1.92,4.15-2.99,1.39-1.06,2.74-2.2,4.06-3.4,1.31-1.2,2.5-2.46,3.55-3.78s1.93-2.69,2.63-4.11c.7-1.43,1.13-2.9,1.28-4.43-.28-.15-.48-.37-.62-.66s-.21-.59-.21-.92c0-.4.14-.73.43-1s.64-.39,1.07-.39c.3,0,.56.07.77.21.21.14.39.31.53.53.14.21.23.45.28.71.05.26.08.52.08.77,0,1.1-.31,2.27-.92,3.49s-1.41,2.45-2.38,3.68c-.98,1.23-2.08,2.45-3.32,3.66-1.24,1.21-2.49,2.35-3.76,3.4-1.26,1.05-2.49,2.02-3.66,2.89-1.18.88-2.19,1.6-3.04,2.18-.6.4-1.25.83-1.95,1.3-.7.46-1.38.93-2.05,1.39-.66.46-1.28.92-1.86,1.35-.58.44-1.04.83-1.39,1.18l-.23-.3c.9-1.25,1.68-2.61,2.33-4.08.65-1.46,1.25-2.98,1.8-4.54.55-1.56,1.11-3.14,1.67-4.71.56-1.58,1.2-3.08,1.9-4.51l-.08-.04c-.83,1.03-1.82,2.19-2.97,3.49-1.15,1.3-2.39,2.65-3.72,4.04-1.33,1.39-2.69,2.77-4.08,4.13-1.39,1.37-2.74,2.64-4.04,3.81-.38.35-.71.69-1,1.01-.29.33-.54.61-.77.86s-.44.45-.66.6-.46.23-.73.23c-.35,0-.53-.13-.53-.38,0-.15.09-.3.26-.45.17-.15.38-.31.6-.49.23-.18.44-.34.66-.51.21-.16.37-.33.47-.51.73-1.25,1.35-2.57,1.86-3.94.51-1.38,1-2.76,1.45-4.15.45-1.39.93-2.78,1.43-4.17s1.1-2.74,1.78-4.04c.69-1.3,1.53-2.55,2.52-3.74.99-1.19,2.21-2.27,3.66-3.25l-.08-.08c-.83.38-1.79.73-2.89,1.05-1.1.33-2.24.68-3.4,1.07-1.16.39-2.31.81-3.44,1.26-1.13.45-2.14.97-3.02,1.56-.89.59-1.6,1.26-2.14,2.03-.54.76-.81,1.65-.81,2.65,0,.93.25,1.64.75,2.14s1.15.75,1.95.75c.58,0,1.1-.11,1.58-.34.48-.23.88-.53,1.22-.9s.59-.8.77-1.28c.17-.47.26-.95.26-1.43,0-.15,0-.3-.02-.45s-.03-.3-.06-.45h.45c.02.15.04.3.06.45.01.15.02.3.02.45,0,.63-.11,1.21-.34,1.75-.23.54-.53,1.01-.92,1.41-.39.4-.85.71-1.39.92-.54.21-1.12.32-1.75.32-1.05,0-1.92-.3-2.61-.9-.69-.6-1.03-1.46-1.03-2.59s.31-2.1.92-2.91c.61-.81,1.45-1.53,2.5-2.16,1.05-.62,2.29-1.19,3.72-1.69s2.94-.98,4.54-1.43c1.33-.38,2.4-.69,3.21-.94.81-.25,1.46-.46,1.93-.64s.82-.32,1.03-.43c.21-.11.36-.22.43-.32l.15.3Z"/>
    <path d="M66.46,83.29c-.6.68-1.28,1.21-2.03,1.62s-1.49.6-2.22.6-1.3-.16-1.8-.47c-.5-.31-.89-.68-1.17-1.11h-.08c-.25.95-.71,1.97-1.39,3.04-.68,1.08-1.48,2.07-2.42,2.97-.94.9-1.97,1.65-3.1,2.25-1.13.6-2.28.9-3.46.9-1.08,0-1.89-.31-2.44-.94-.55-.63-.83-1.46-.83-2.52,0-.55.14-1.19.41-1.92.27-.73.66-1.46,1.15-2.2.49-.74,1.06-1.46,1.73-2.18.66-.71,1.38-1.35,2.16-1.92.78-.56,1.6-1.01,2.46-1.35.86-.34,1.73-.51,2.61-.51,1.03,0,1.82.3,2.38.9.56.6.87,1.38.92,2.33.05.58.32,1.11.81,1.6s1.16.73,2.01.73c.75,0,1.46-.19,2.12-.56.66-.38,1.28-.86,1.86-1.46l.3.19ZM47.57,90.54c0,.65.12,1.17.38,1.54.25.38.63.56,1.13.56.68,0,1.35-.18,2.01-.54.66-.36,1.3-.84,1.92-1.43.61-.59,1.18-1.26,1.71-2.01.53-.75.98-1.53,1.37-2.33.39-.8.7-1.58.92-2.35.22-.76.34-1.46.34-2.08,0-.53-.13-.97-.39-1.33-.26-.36-.67-.54-1.22-.54s-1.09.17-1.69.51-1.21.78-1.82,1.33c-.61.55-1.2,1.19-1.75,1.92-.55.73-1.05,1.48-1.48,2.25-.44.78-.78,1.55-1.03,2.33-.25.78-.38,1.5-.38,2.18Z"/>
    <path d="M59.59,92.79c.55-.93,1.18-1.94,1.9-3.04.71-1.1,1.44-2.22,2.18-3.36.74-1.14,1.46-2.27,2.18-3.38s1.36-2.16,1.93-3.14h2.29l-4.96,6.99.08.08c.48-.58,1.05-1.28,1.73-2.12.68-.84,1.42-1.65,2.24-2.42.81-.78,1.68-1.44,2.61-1.99.93-.55,1.88-.83,2.85-.83.6,0,1.1.16,1.48.47.39.31.58.77.58,1.37,0,.35-.13.78-.38,1.28-.25.5-.54,1.01-.88,1.52-.34.51-.68,1.01-1.03,1.48s-.63.86-.83,1.16l.08.08c.53-.75,1.16-1.55,1.9-2.4.74-.85,1.53-1.65,2.37-2.38.84-.74,1.7-1.35,2.59-1.84.89-.49,1.75-.73,2.57-.73.73,0,1.27.18,1.63.53s.54.84.54,1.46c0,.43-.14.93-.43,1.5-.29.58-.65,1.18-1.09,1.82-.44.64-.91,1.28-1.41,1.93-.5.65-.97,1.28-1.41,1.88-.44.6-.8,1.16-1.09,1.67-.29.51-.43.95-.43,1.3,0,.3.09.54.28.71.19.18.42.26.7.26.6,0,1.31-.24,2.12-.71.81-.47,1.69-1.14,2.63-1.99.94-.85,1.92-1.87,2.95-3.06,1.03-1.19,2.07-2.5,3.12-3.92l.3.15c-1.03,1.4-2.05,2.71-3.08,3.92-1.03,1.21-2.02,2.27-2.99,3.17s-1.89,1.61-2.78,2.12c-.89.51-1.71.77-2.46.77s-1.35-.22-1.73-.66c-.38-.44-.56-.98-.56-1.63,0-.47.14-1.01.43-1.6.29-.59.65-1.2,1.09-1.82.44-.62.91-1.25,1.41-1.88.5-.62.97-1.23,1.41-1.8.44-.58.8-1.1,1.09-1.58s.43-.86.43-1.17c0-.35-.09-.59-.28-.73-.19-.14-.42-.21-.69-.21-.5,0-1.09.17-1.77.51-.68.34-1.38.81-2.12,1.43-.74.61-1.5,1.33-2.27,2.14-.78.81-1.53,1.69-2.27,2.63-.74.94-1.43,1.93-2.08,2.97s-1.21,2.07-1.69,3.1h-2.4c.7-1.25,1.46-2.5,2.27-3.76.81-1.25,1.57-2.41,2.27-3.47.7-1.06,1.29-1.99,1.76-2.78.48-.79.71-1.37.71-1.75,0-.68-.35-1.01-1.05-1.01-.63,0-1.33.23-2.1.69-.78.46-1.57,1.06-2.37,1.8-.8.74-1.59,1.58-2.37,2.52-.78.94-1.51,1.88-2.2,2.84-.69.95-1.3,1.86-1.82,2.72-.53.86-.94,1.6-1.24,2.2h-2.44Z"/>
    <path d="M104.18,83.07c-.38.63-.85,1.31-1.41,2.07-.56.75-1.2,1.5-1.92,2.23-.71.74-1.48,1.45-2.29,2.14-.81.69-1.66,1.3-2.54,1.84-.88.54-1.76.96-2.65,1.28-.89.31-1.76.47-2.61.47-1.05,0-1.87-.27-2.44-.81-.58-.54-.86-1.31-.86-2.31,0-1.1.33-2.26,1-3.47.66-1.21,1.51-2.33,2.54-3.36,1.03-1.03,2.15-1.88,3.38-2.55,1.23-.68,2.4-1.01,3.53-1.01.63,0,1.11.13,1.46.39s.53.65.53,1.15c0,.6-.33,1.18-.98,1.75-.65.56-1.45,1.08-2.38,1.54-.94.46-1.95.88-3.02,1.24-1.08.36-2.03.63-2.85.81-.28.5-.5,1.06-.68,1.69-.18.63-.26,1.25-.26,1.88,0,.3.03.59.09.88.06.29.16.55.3.79.14.24.33.43.56.58.24.15.53.22.88.22.83,0,1.8-.27,2.91-.81,1.11-.54,2.25-1.26,3.4-2.16,1.15-.9,2.25-1.93,3.31-3.08,1.05-1.15,1.95-2.34,2.7-3.57l.3.19ZM98.09,81.08c0-.35-.09-.61-.28-.79-.19-.17-.42-.26-.69-.26-.53,0-1.1.21-1.71.62-.61.41-1.22.93-1.82,1.54-.6.61-1.15,1.27-1.63,1.97s-.86,1.33-1.11,1.88c.55-.1,1.24-.29,2.07-.58s1.62-.64,2.38-1.07c.76-.42,1.42-.92,1.97-1.48.55-.56.83-1.17.83-1.82Z"/>
    <path d="M107.59,79.87l-4.96,6.87.08.07c.53-.62,1.14-1.36,1.84-2.2.7-.84,1.45-1.63,2.25-2.38.8-.75,1.63-1.38,2.5-1.9.86-.51,1.72-.77,2.57-.77.75,0,1.33.21,1.75.62s.62.95.62,1.6c0,.4-.14.88-.43,1.43s-.64,1.14-1.07,1.77-.89,1.26-1.39,1.92c-.5.65-.96,1.27-1.39,1.86-.43.59-.78,1.13-1.07,1.62-.29.49-.43.9-.43,1.22,0,.7.35,1.05,1.05,1.05.8,0,1.65-.27,2.55-.81.9-.54,1.98-1.45,3.23-2.72.5-.5,1.01-1.05,1.52-1.65.51-.6,1.01-1.2,1.48-1.78.47-.59.91-1.15,1.3-1.67.39-.53.69-.96.92-1.31l.26.15c-.5.75-1.15,1.65-1.93,2.69-.79,1.04-1.65,2.06-2.57,3.06-.55.6-1.12,1.18-1.69,1.73-.58.55-1.15,1.03-1.73,1.45-.58.41-1.15.74-1.71.98-.56.24-1.12.36-1.67.36-.73,0-1.33-.2-1.8-.6-.48-.4-.71-.95-.71-1.65,0-.75.3-1.57.9-2.46s1.26-1.78,1.99-2.69c.73-.9,1.39-1.77,1.99-2.59.6-.83.9-1.55.9-2.18,0-.3-.1-.53-.3-.68-.2-.15-.46-.23-.79-.23-.63,0-1.33.23-2.1.69-.78.46-1.57,1.08-2.39,1.84s-1.63,1.62-2.44,2.55c-.81.94-1.57,1.88-2.27,2.82-.7.94-1.33,1.84-1.88,2.7-.55.86-.96,1.58-1.24,2.16h-2.33c.65-1.1,1.35-2.22,2.08-3.36s1.47-2.27,2.2-3.38c.73-1.11,1.42-2.19,2.08-3.23.66-1.04,1.26-1.98,1.78-2.84l2.44-.11Z"/>
    <path d="M139.56,81.11c-1.23,1.55-2.49,3.05-3.79,4.49-1.3,1.44-2.61,2.72-3.92,3.83s-2.62,2-3.92,2.67c-1.3.66-2.55,1-3.76,1-.83,0-1.48-.09-1.97-.28-.49-.19-.86-.41-1.13-.68-.26-.26-.44-.54-.53-.83-.09-.29-.13-.54-.13-.77,0-.42.12-.79.38-1.09.25-.3.6-.45,1.05-.45.4,0,.71.14.94.41.23.28.34.6.34.98,0,.23-.06.45-.19.68-.12.22-.3.36-.53.41.23.35.54.58.94.69.4.11.81.17,1.24.17,1.08,0,2.21-.31,3.4-.94s2.39-1.45,3.61-2.46c1.21-1.01,2.42-2.17,3.62-3.46,1.2-1.29,2.35-2.61,3.46-3.96.48-.6,1.07-1.34,1.78-2.22.71-.88,1.52-1.83,2.42-2.85.9-1.03,1.88-2.07,2.95-3.14,1.06-1.06,2.2-2.07,3.4-3.02,1.2-.95,2.45-1.8,3.76-2.55,1.3-.75,2.63-1.31,3.98-1.69l.11.15c-.85.78-1.74,1.74-2.67,2.89-.93,1.15-1.83,2.4-2.72,3.74-.89,1.34-1.73,2.75-2.54,4.23-.8,1.48-1.51,2.95-2.12,4.41-.61,1.46-1.1,2.87-1.46,4.23-.36,1.35-.54,2.59-.54,3.72,0,.78.13,1.43.39,1.97s.79.81,1.6.81c.48,0,1.02-.17,1.63-.53.61-.35,1.26-.81,1.93-1.39.68-.58,1.35-1.21,2.01-1.92.66-.7,1.3-1.4,1.9-2.08.6-.69,1.14-1.34,1.62-1.95.47-.61.85-1.11,1.13-1.48l.26.11c-.85,1.08-1.75,2.22-2.71,3.42-.95,1.2-1.92,2.3-2.89,3.29-.98.99-1.96,1.81-2.95,2.46-.99.65-1.93.98-2.84.98-.6,0-1.11-.11-1.52-.32-.41-.21-.76-.51-1.03-.88s-.48-.8-.6-1.28c-.13-.48-.19-.98-.19-1.5,0-1.43.2-2.8.6-4.11.4-1.31.85-2.61,1.35-3.89h-5.15ZM144.89,80.66c1.13-2.33,2.46-4.61,4-6.84,1.54-2.23,3.36-4.34,5.46-6.35l-.08-.08c-1.33.65-2.62,1.45-3.89,2.4-1.27.95-2.5,2-3.7,3.16-1.2,1.15-2.37,2.38-3.51,3.68-1.14,1.3-2.25,2.64-3.32,4.02h5.03Z"/>
    <path d="M160.93,79.87l-4.77,6.95.08.08c.35-.42.79-.92,1.33-1.48s1.13-1.14,1.77-1.73c.64-.59,1.31-1.17,2.01-1.75.7-.58,1.39-1.09,2.07-1.54.12-.25.26-.45.41-.6s.45-.23.9-.23c.28,0,.52,0,.73.02.21.01.43.03.66.06-.43.43-.84.95-1.24,1.56-.4.61-.6,1.28-.6,2.01,0,.58.14,1.03.43,1.35s.64.49,1.07.49c.38,0,.75-.08,1.11-.23.36-.15.71-.34,1.03-.56.33-.23.64-.46.94-.71.3-.25.56-.48.79-.68l.23.15c-.25.25-.54.52-.86.81s-.68.56-1.05.81c-.38.25-.78.46-1.2.62-.43.16-.86.24-1.31.24-.8,0-1.45-.24-1.93-.73s-.73-1.17-.73-2.05c0-.6.14-1.14.41-1.62l-.07-.08c-1.03.7-2.15,1.62-3.38,2.76-1.23,1.14-2.53,2.49-3.91,4.04-.5.55-1.02,1.28-1.56,2.18-.54.9-1.01,1.83-1.41,2.78h-2.44c1.35-2.15,2.7-4.29,4.06-6.42,1.35-2.13,2.74-4.29,4.17-6.5h2.29Z"/>
    <path d="M182.45,83.07c-.38.63-.85,1.31-1.41,2.07-.56.75-1.2,1.5-1.92,2.23-.71.74-1.48,1.45-2.29,2.14-.81.69-1.66,1.3-2.54,1.84-.88.54-1.76.96-2.65,1.28-.89.31-1.76.47-2.61.47-1.05,0-1.87-.27-2.44-.81-.58-.54-.86-1.31-.86-2.31,0-1.1.33-2.26,1-3.47.66-1.21,1.51-2.33,2.54-3.36,1.03-1.03,2.15-1.88,3.38-2.55,1.23-.68,2.4-1.01,3.53-1.01.63,0,1.11.13,1.46.39s.53.65.53,1.15c0,.6-.33,1.18-.98,1.75-.65.56-1.45,1.08-2.38,1.54-.94.46-1.95.88-3.02,1.24-1.08.36-2.03.63-2.85.81-.28.5-.5,1.06-.68,1.69-.18.63-.26,1.25-.26,1.88,0,.3.03.59.09.88.06.29.16.55.3.79.14.24.33.43.56.58.24.15.53.22.88.22.83,0,1.8-.27,2.91-.81,1.11-.54,2.25-1.26,3.4-2.16,1.15-.9,2.25-1.93,3.31-3.08,1.05-1.15,1.95-2.34,2.7-3.57l.3.19ZM176.37,81.08c0-.35-.09-.61-.28-.79-.19-.17-.42-.26-.69-.26-.53,0-1.1.21-1.71.62-.61.41-1.22.93-1.82,1.54-.6.61-1.15,1.27-1.63,1.97s-.86,1.33-1.11,1.88c.55-.1,1.24-.29,2.07-.58s1.62-.64,2.38-1.07c.76-.42,1.42-.92,1.97-1.48.55-.56.83-1.17.83-1.82Z"/>
    <path d="M197.21,80.32v-.45h2.89c.98-1.55,1.98-3.12,3-4.7,1.03-1.58,2.1-3,3.23-4.26s2.3-2.29,3.53-3.08c1.23-.79,2.52-1.18,3.87-1.18.8,0,1.45.17,1.95.51s.75.86.75,1.56c0,.6-.19,1.1-.56,1.48-.38.39-.85.61-1.43.66.1-.35.18-.68.24-1,.06-.31.09-.68.09-1.11,0-.5-.12-.9-.36-1.2s-.64-.45-1.22-.45c-.93,0-1.87.42-2.84,1.26-.96.84-1.92,1.9-2.85,3.17-.94,1.28-1.85,2.66-2.74,4.15-.89,1.49-1.73,2.89-2.54,4.19h8.49v.45h-8.71c-2.4,4.11-4.56,7.62-6.46,10.55s-3.73,5.33-5.48,7.21c-1.75,1.88-3.5,3.25-5.26,4.13-1.75.88-3.69,1.31-5.82,1.31-.75,0-1.47-.09-2.16-.28-.69-.19-1.3-.47-1.82-.85-.53-.38-.95-.84-1.28-1.41-.33-.56-.49-1.22-.49-1.97,0-.98.31-1.81.92-2.5.61-.69,1.65-1.03,3.1-1.03h.34v.3c-.75.05-1.39.34-1.92.86s-.79,1.25-.79,2.18c0,1.3.36,2.33,1.09,3.1.73.76,1.79,1.15,3.19,1.15s2.64-.31,3.87-.92c1.23-.61,2.41-1.46,3.55-2.54,1.14-1.08,2.25-2.34,3.34-3.79,1.09-1.45,2.18-3.02,3.27-4.71,1.09-1.69,2.18-3.46,3.29-5.3,1.1-1.84,2.23-3.67,3.38-5.5h-2.67Z"/>
    <path d="M211.19,79.87l-4.77,6.95.08.08c.35-.42.79-.92,1.33-1.48s1.13-1.14,1.77-1.73c.64-.59,1.31-1.17,2.01-1.75.7-.58,1.39-1.09,2.07-1.54.12-.25.26-.45.41-.6s.45-.23.9-.23c.28,0,.52,0,.73.02.21.01.43.03.66.06-.43.43-.84.95-1.24,1.56-.4.61-.6,1.28-.6,2.01,0,.58.14,1.03.43,1.35s.64.49,1.07.49c.38,0,.75-.08,1.11-.23.36-.15.71-.34,1.03-.56.33-.23.64-.46.94-.71.3-.25.56-.48.79-.68l.23.15c-.25.25-.54.52-.86.81s-.68.56-1.05.81c-.38.25-.78.46-1.2.62-.43.16-.86.24-1.31.24-.8,0-1.45-.24-1.93-.73s-.73-1.17-.73-2.05c0-.6.14-1.14.41-1.62l-.07-.08c-1.03.7-2.15,1.62-3.38,2.76-1.23,1.14-2.53,2.49-3.91,4.04-.5.55-1.02,1.28-1.56,2.18-.54.9-1.01,1.83-1.41,2.78h-2.44c1.35-2.15,2.7-4.29,4.06-6.42,1.35-2.13,2.74-4.29,4.17-6.5h2.29Z"/>
    <path d="M236.73,83.29c-.6.68-1.28,1.21-2.03,1.62s-1.49.6-2.22.6-1.3-.16-1.8-.47c-.5-.31-.89-.68-1.17-1.11h-.08c-.25.95-.71,1.97-1.39,3.04-.68,1.08-1.48,2.07-2.42,2.97-.94.9-1.97,1.65-3.1,2.25-1.13.6-2.28.9-3.46.9-1.08,0-1.89-.31-2.44-.94-.55-.63-.83-1.46-.83-2.52,0-.55.14-1.19.41-1.92.27-.73.66-1.46,1.15-2.2.49-.74,1.06-1.46,1.73-2.18.66-.71,1.38-1.35,2.16-1.92.78-.56,1.6-1.01,2.46-1.35.86-.34,1.73-.51,2.61-.51,1.03,0,1.82.3,2.38.9.56.6.87,1.38.92,2.33.05.58.32,1.11.81,1.6s1.16.73,2.01.73c.75,0,1.46-.19,2.12-.56.66-.38,1.28-.86,1.86-1.46l.3.19ZM217.83,90.54c0,.65.12,1.17.38,1.54.25.38.63.56,1.13.56.68,0,1.35-.18,2.01-.54.66-.36,1.3-.84,1.92-1.43.61-.59,1.18-1.26,1.71-2.01.53-.75.98-1.53,1.37-2.33.39-.8.7-1.58.92-2.35.22-.76.34-1.46.34-2.08,0-.53-.13-.97-.39-1.33-.26-.36-.67-.54-1.22-.54s-1.09.17-1.69.51-1.21.78-1.82,1.33c-.61.55-1.2,1.19-1.75,1.92-.55.73-1.05,1.48-1.48,2.25-.44.78-.78,1.55-1.03,2.33-.25.78-.38,1.5-.38,2.18Z"/>
    <path d="M229.85,92.79c.55-.93,1.18-1.94,1.9-3.04.71-1.1,1.44-2.22,2.18-3.36.74-1.14,1.46-2.27,2.18-3.38s1.36-2.16,1.93-3.14h2.29l-4.96,6.99.08.08c.48-.58,1.05-1.28,1.73-2.12.68-.84,1.42-1.65,2.24-2.42.81-.78,1.68-1.44,2.61-1.99.93-.55,1.88-.83,2.85-.83.6,0,1.1.16,1.48.47.39.31.58.77.58,1.37,0,.35-.13.78-.38,1.28-.25.5-.54,1.01-.88,1.52-.34.51-.68,1.01-1.03,1.48s-.63.86-.83,1.16l.08.08c.53-.75,1.16-1.55,1.9-2.4.74-.85,1.53-1.65,2.37-2.38.84-.74,1.7-1.35,2.59-1.84.89-.49,1.75-.73,2.57-.73.73,0,1.27.18,1.63.53s.54.84.54,1.46c0,.43-.14.93-.43,1.5-.29.58-.65,1.18-1.09,1.82-.44.64-.91,1.28-1.41,1.93-.5.65-.97,1.28-1.41,1.88-.44.6-.8,1.16-1.09,1.67-.29.51-.43.95-.43,1.3,0,.3.09.54.28.71.19.18.42.26.7.26.6,0,1.31-.24,2.12-.71.81-.47,1.69-1.14,2.63-1.99.94-.85,1.92-1.87,2.95-3.06,1.03-1.19,2.07-2.5,3.12-3.92l.3.15c-1.03,1.4-2.05,2.71-3.08,3.92-1.03,1.21-2.02,2.27-2.99,3.17s-1.89,1.61-2.78,2.12c-.89.51-1.71.77-2.46.77s-1.35-.22-1.73-.66c-.38-.44-.56-.98-.56-1.63,0-.47.14-1.01.43-1.6.29-.59.65-1.2,1.09-1.82.44-.62.91-1.25,1.41-1.88.5-.62.97-1.23,1.41-1.8.44-.58.8-1.1,1.09-1.58s.43-.86.43-1.17c0-.35-.09-.59-.28-.73-.19-.14-.42-.21-.69-.21-.5,0-1.09.17-1.77.51-.68.34-1.38.81-2.12,1.43-.74.61-1.5,1.33-2.27,2.14-.78.81-1.53,1.69-2.27,2.63-.74.94-1.43,1.93-2.08,2.97s-1.21,2.07-1.69,3.1h-2.4c.7-1.25,1.46-2.5,2.27-3.76.81-1.25,1.57-2.41,2.27-3.47.7-1.06,1.29-1.99,1.76-2.78.48-.79.71-1.37.71-1.75,0-.68-.35-1.01-1.05-1.01-.63,0-1.33.23-2.1.69-.78.46-1.57,1.06-2.37,1.8-.8.74-1.59,1.58-2.37,2.52-.78.94-1.51,1.88-2.2,2.84-.69.95-1.3,1.86-1.82,2.72-.53.86-.94,1.6-1.24,2.2h-2.44Z"/>
    <path d="M283.98,66.24c-1.35,1.05-2.49,2.25-3.42,3.59-.93,1.34-1.73,2.75-2.42,4.23-.69,1.48-1.31,3-1.86,4.58-.55,1.58-1.13,3.13-1.75,4.66s-1.31,3.01-2.08,4.45c-.78,1.44-1.74,2.77-2.89,4l.08.08c1.48-.88,2.87-1.72,4.19-2.54,1.32-.81,2.57-1.61,3.78-2.39,3.16-2.03,5.65-3.97,7.47-5.82,1.83-1.85,3.21-3.55,4.13-5.09.93-1.54,1.51-2.89,1.77-4.04.25-1.15.38-2.01.38-2.59-.33-.1-.54-.26-.66-.49-.11-.22-.17-.5-.17-.83,0-.43.14-.78.41-1.05.28-.28.63-.41,1.05-.41.65,0,1.09.22,1.33.66.24.44.36,1.02.36,1.75,0,.98-.23,2.01-.7,3.1-.46,1.09-1.1,2.19-1.92,3.31-.81,1.11-1.76,2.23-2.84,3.36-1.08,1.13-2.22,2.22-3.44,3.27s-2.48,2.05-3.79,3c-1.31.95-2.6,1.82-3.85,2.59-1.48.9-2.96,1.8-4.43,2.7-1.48.9-3.02,1.83-4.62,2.78l-.19-.19c.88-1.28,1.63-2.65,2.27-4.11.64-1.46,1.23-2.97,1.78-4.53.55-1.55,1.11-3.1,1.67-4.66s1.21-3.05,1.93-4.49c.73-1.44,1.59-2.79,2.59-4.04,1-1.25,2.22-2.34,3.64-3.27l-.08-.08c-1.05.55-2.19.97-3.42,1.26-1.23.29-2.48.61-3.76.96-.83.23-1.72.53-2.69.9s-1.86.86-2.69,1.45-1.52,1.28-2.08,2.07-.85,1.71-.85,2.76c0,.88.28,1.55.83,2.03s1.2.71,1.95.71c.45,0,.9-.09,1.33-.28.44-.19.83-.44,1.16-.75.34-.31.61-.69.81-1.15.2-.45.3-.94.3-1.46v-.68c0-.2-.03-.41-.08-.64h.41c.02.2.05.41.08.64.02.22.04.48.04.75,0,.53-.11,1.03-.32,1.5-.21.48-.51.9-.88,1.28s-.82.68-1.33.9c-.51.23-1.06.34-1.63.34-1.05,0-1.93-.31-2.65-.92-.71-.61-1.07-1.46-1.07-2.54,0-1.18.31-2.17.92-2.99.61-.81,1.37-1.5,2.27-2.07.9-.56,1.87-1.02,2.89-1.37s1.95-.64,2.78-.86c.65-.2,1.41-.39,2.27-.58.86-.19,1.73-.41,2.61-.66.88-.25,1.73-.56,2.57-.92s1.57-.82,2.2-1.37l.26.19Z"/>
    <path d="M301.93,83.07c-.38.63-.85,1.31-1.41,2.07-.56.75-1.2,1.5-1.92,2.23-.71.74-1.48,1.45-2.29,2.14-.81.69-1.66,1.3-2.54,1.84-.88.54-1.76.96-2.65,1.28-.89.31-1.76.47-2.61.47-1.05,0-1.87-.27-2.44-.81-.58-.54-.86-1.31-.86-2.31,0-1.1.33-2.26,1-3.47.66-1.21,1.51-2.33,2.54-3.36,1.03-1.03,2.15-1.88,3.38-2.55,1.23-.68,2.4-1.01,3.53-1.01.63,0,1.11.13,1.46.39s.53.65.53,1.15c0,.6-.33,1.18-.98,1.75-.65.56-1.45,1.08-2.38,1.54-.94.46-1.95.88-3.02,1.24-1.08.36-2.03.63-2.85.81-.28.5-.5,1.06-.68,1.69-.18.63-.26,1.25-.26,1.88,0,.3.03.59.09.88.06.29.16.55.3.79.14.24.33.43.56.58.24.15.53.22.88.22.83,0,1.8-.27,2.91-.81,1.11-.54,2.25-1.26,3.4-2.16,1.15-.9,2.25-1.93,3.31-3.08,1.05-1.15,1.95-2.34,2.7-3.57l.3.19ZM295.85,81.08c0-.35-.09-.61-.28-.79-.19-.17-.42-.26-.69-.26-.53,0-1.1.21-1.71.62-.61.41-1.22.93-1.82,1.54-.6.61-1.15,1.27-1.63,1.97s-.86,1.33-1.11,1.88c.55-.1,1.24-.29,2.07-.58s1.62-.64,2.38-1.07c.76-.42,1.42-.92,1.97-1.48.55-.56.83-1.17.83-1.82Z"/>
    <path d="M305.35,79.87l-4.96,6.87.08.07c.53-.62,1.14-1.36,1.84-2.2.7-.84,1.45-1.63,2.25-2.38.8-.75,1.63-1.38,2.5-1.9.86-.51,1.72-.77,2.57-.77.75,0,1.33.21,1.75.62s.62.95.62,1.6c0,.4-.14.88-.43,1.43s-.64,1.14-1.07,1.77-.89,1.26-1.39,1.92c-.5.65-.96,1.27-1.39,1.86-.43.59-.78,1.13-1.07,1.62-.29.49-.43.9-.43,1.22,0,.7.35,1.05,1.05,1.05.8,0,1.65-.27,2.55-.81.9-.54,1.98-1.45,3.23-2.72.5-.5,1.01-1.05,1.52-1.65.51-.6,1.01-1.2,1.48-1.78.47-.59.91-1.15,1.3-1.67.39-.53.69-.96.92-1.31l.26.15c-.5.75-1.15,1.65-1.93,2.69-.79,1.04-1.65,2.06-2.57,3.06-.55.6-1.12,1.18-1.69,1.73-.58.55-1.15,1.03-1.73,1.45-.58.41-1.15.74-1.71.98-.56.24-1.12.36-1.67.36-.73,0-1.33-.2-1.8-.6-.48-.4-.71-.95-.71-1.65,0-.75.3-1.57.9-2.46s1.26-1.78,1.99-2.69c.73-.9,1.39-1.77,1.99-2.59.6-.83.9-1.55.9-2.18,0-.3-.1-.53-.3-.68-.2-.15-.46-.23-.79-.23-.63,0-1.33.23-2.1.69-.78.46-1.57,1.08-2.39,1.84s-1.63,1.62-2.44,2.55c-.81.94-1.57,1.88-2.27,2.82-.7.94-1.33,1.84-1.88,2.7-.55.86-.96,1.58-1.24,2.16h-2.33c.65-1.1,1.35-2.22,2.08-3.36s1.47-2.27,2.2-3.38c.73-1.11,1.42-2.19,2.08-3.23.66-1.04,1.26-1.98,1.78-2.84l2.44-.11Z"/>
    <path d="M322.48,79.87c-.98,1.33-1.92,2.59-2.82,3.79-.9,1.2-1.7,2.3-2.4,3.3-.7,1-1.26,1.87-1.67,2.61-.41.74-.62,1.32-.62,1.75,0,.4.1.7.3.88.2.19.46.28.79.28.48,0,1-.15,1.56-.45.56-.3,1.14-.69,1.73-1.17.59-.47,1.16-1,1.73-1.58s1.09-1.15,1.58-1.71.91-1.08,1.28-1.56.63-.85.81-1.13l3.31-5.03h2.59c-1.35,1.85-2.5,3.42-3.44,4.71-.94,1.29-1.7,2.38-2.29,3.29-.59.9-1.01,1.63-1.26,2.2-.25.56-.38,1.06-.38,1.48,0,.3.09.56.26.77.17.21.43.32.75.32.5,0,1.08-.18,1.73-.54.65-.36,1.33-.84,2.03-1.43.7-.59,1.4-1.25,2.08-1.99.69-.74,1.34-1.47,1.95-2.2.61-.73,1.17-1.41,1.67-2.05s.89-1.16,1.16-1.56l.38.11c-.3.43-.7.97-1.2,1.63-.5.66-1.06,1.37-1.69,2.1-.63.74-1.29,1.49-1.99,2.25-.7.76-1.42,1.45-2.16,2.05-.74.6-1.46,1.1-2.18,1.48-.71.39-1.38.58-2.01.58-.7,0-1.26-.19-1.67-.58-.41-.39-.62-.91-.62-1.56,0-.5.08-.98.24-1.45.16-.46.28-.76.36-.88l-.08-.08c-.53.6-1.08,1.18-1.65,1.73-.58.55-1.15,1.03-1.73,1.45s-1.16.75-1.75,1c-.59.25-1.17.38-1.75.38-.8,0-1.38-.18-1.73-.54s-.53-.79-.53-1.3c0-.63.17-1.3.51-2.03.34-.73.81-1.54,1.41-2.44.6-.9,1.32-1.92,2.16-3.04.84-1.13,1.76-2.42,2.76-3.87h2.48Z"/>
    <path d="M347.68,83.1c-.75,1.2-1.62,2.4-2.61,3.59s-2.07,2.26-3.25,3.21c-1.18.95-2.46,1.72-3.85,2.31s-2.87.88-4.45.88c-.6,0-1.16-.08-1.69-.23-.53-.15-.98-.38-1.37-.68-.39-.3-.7-.68-.94-1.15-.24-.46-.36-1.01-.36-1.63s.21-1.24.64-1.76c.43-.53,1-.79,1.73-.79.38,0,.68.09.92.28.24.19.36.47.36.85,0,.35-.09.65-.26.9-.18.25-.44.38-.79.38-.28,0-.49-.08-.66-.23s-.27-.34-.32-.56c-.28.15-.46.37-.56.66-.1.29-.15.58-.15.88,0,.88.33,1.53,1,1.97.66.44,1.41.66,2.23.66.53,0,.98-.11,1.37-.32.39-.21.71-.49.98-.83s.46-.73.58-1.18c.12-.45.19-.9.19-1.35,0-.48-.08-.97-.24-1.48-.16-.51-.34-1.02-.54-1.52-.2-.5-.39-1-.56-1.48-.18-.49-.26-.95-.26-1.37,0-.55.11-1.05.34-1.48.23-.44.53-.81.92-1.11.39-.3.83-.53,1.33-.7.5-.16,1.03-.24,1.58-.24,1,0,1.82.22,2.44.66.63.44.94,1.02.94,1.75,0,.65-.24,1.13-.73,1.43-.49.3-1.03.45-1.63.45.15-.28.28-.61.39-1,.11-.39.17-.75.17-1.07,0-.5-.16-.92-.47-1.26-.31-.34-.76-.51-1.33-.51-.73,0-1.26.22-1.62.66-.35.44-.53.97-.53,1.6,0,.55.09,1.08.28,1.58.19.5.41,1,.66,1.5.23.5.43,1.01.62,1.54.19.53.28,1.12.28,1.77,0,.48-.11.93-.32,1.37-.21.44-.5.84-.85,1.2s-.75.67-1.18.92c-.44.25-.88.41-1.33.49l.08.08c1.35-.15,2.64-.54,3.87-1.18,1.23-.64,2.37-1.42,3.44-2.33s2.05-1.92,2.95-3c.9-1.09,1.69-2.16,2.37-3.21l.22.11Z"/>
  </g>
  <rect class="cls-1" x=".5" y=".51" width="359.85" height="119.33"/>
</svg>